<?xml version="1.0" standalone="no"?>
<!DOCTYPE svg PUBLIC "-//W3C//DTD SVG 20010904//EN"
 "http://www.w3.org/TR/2001/REC-SVG-20010904/DTD/svg10.dtd">
<svg version="1.0" xmlns="http://www.w3.org/2000/svg"
 width="804.000000pt" height="350.000000pt" viewBox="0 0 804.000000 350.000000"
 preserveAspectRatio="xMidYMid meet">

<g transform="translate(0.000000,350.000000) scale(0.100000,-0.100000)"
fill="#000000" stroke="none">
<path d="M20 2170 l0 -1320 4005 0 4005 0 0 1320 0 1320 -4005 0 -4005 0 0
-1320z m7790 0 l0 -1090 -3180 0 -3180 0 0 1090 0 1090 3180 0 3180 0 0 -1090z
m-7015 1031 c157 -71 165 -288 15 -369 -60 -32 -150 -28 -204 8 -107 73 -126
212 -43 307 39 44 99 73 152 73 22 0 58 -9 80 -19z m111 -511 c6 -6 7 -40 2
-87 -24 -266 -18 -1047 9 -1074 6 -6 50 -16 97 -22 l86 -10 0 -54 c0 -32 -4
-52 -10 -48 -9 6 -704 9 -731 3 -10 -2 -15 9 -17 43 -3 51 6 59 78 59 19 0 52
5 72 10 60 17 62 36 63 485 0 215 -3 406 -8 427 -9 43 -18 48 -125 55 l-83 6
3 50 3 50 155 23 c142 21 310 61 349 84 21 12 45 12 57 0z"/>
</g>
</svg>
